<?xml version="1.0" encoding="UTF-8"?>
<svg width="31px" height="29px" viewBox="0 0 31 29" version="1.1" xmlns="http://www.w3.org/2000/svg" xmlns:xlink="http://www.w3.org/1999/xlink">
    <!-- Generator: Sketch 50.2 (55047) - http://www.bohemiancoding.com/sketch -->
    <title>paperclip</title>
    <desc>Created with Sketch.</desc>
    <defs></defs>
    <g id="Page-1" stroke="none" stroke-width="1" fill="none" fill-rule="evenodd">
        <g id="paperclip" transform="translate(15.500000, 14.500000) scale(-1, 1) translate(-15.500000, -14.500000) " fill="#7D7D7D" fill-rule="nonzero">
            <path d="M22.562,11.491 C22.562,11.491 23.789,10.558 22.855,9.625 C21.921,8.692 21.013,9.896 21.013,9.896 L11.624,19.287 C11.624,19.287 9.425,22.125 7.753,20.409 C6.083,18.691 8.874,16.537 8.874,16.537 L21.185,4.227 C21.185,4.227 24.058,1.062 26.759,3.761 C29.456,6.461 26.282,9.34 26.282,9.34 L12.449,23.173 C12.449,23.173 8.023,28.286 3.926,24.188 C-0.171,20.09 4.992,15.714 4.992,15.714 L15.494,5.209 C15.494,5.209 16.67,4.227 15.789,3.343 C14.904,2.46 13.924,3.638 13.924,3.638 L1.873,15.689 C1.873,15.689 -2.676,20.678 2.404,25.757 C7.484,30.839 12.476,26.29 12.476,26.29 L29.039,9.725 C29.039,9.725 32.353,6.07 28.402,2.117 C24.451,-1.836 20.795,1.478 20.795,1.478 L6.543,15.728 C6.543,15.728 2.893,18.697 6.205,22.007 C9.517,25.321 12.432,21.617 12.432,21.617 L22.562,11.491 Z" id="Shape"></path>
        </g>
    </g>
</svg>